<?xml version="1.0" encoding="UTF-8"?><svg id="b" xmlns="http://www.w3.org/2000/svg" viewBox="0 0 333.71 48.07"><defs><style>.d{fill:#ff5a00;}</style></defs><g id="c"><path class="d" d="M130.9,36.8c4.1,0,7.9-1.8,10.4-5.1,1.7-2.3,2.5-5.2,2.5-8s-.8-5.7-2.5-8c-2.4-3.3-6.3-5.1-10.4-5.1s-7.9,1.8-10.4,5.1c-1.7,2.3-2.5,5.2-2.5,8s.8,5.7,2.5,8c2.4,3.4,6.3,5.1,10.4,5.1M124.6,20.7c.9-2.8,3.2-5.1,6.3-5.1s5.3,2.3,6.3,5.1c.3.9.5,2,.5,3s-.2,2.1-.5,3c-.9,2.8-3.2,5.1-6.3,5.1s-5.3-2.3-6.3-5.1c-.3-.9-.5-2-.5-3s.2-2.1.5-3"/><path class="d" d="M37.6,36.9h4.3c.4,0,.7-.3.7-.7V.7c0-.4-.3-.7-.7-.7h-4.3c-.4,0-.7.3-.7.7v35.4c0,.5.3.8.7.8"/><path class="d" d="M27.5,36.9h4.3c.4,0,.7-.3.7-.7V.7c0-.4-.3-.7-.7-.7h-4.3c-.4,0-.7.3-.7.7v35.4c-.1.5.3.8.7.8"/><path class="d" d="M103.1,36.9h4.3c.4,0,.7-.3.7-.7v-14.5c0-4.5,3-6.7,7.9-5.7.6.1,1-.2,1-.9v-3c0-.8-.1-1.1-.6-1.2-.8-.2-2.5-.3-3-.3-3.1,0-6,1.3-7.9,3.2-1.4,1.4-3.2,3.6-3.2,7.5v14.8c.1.5.4.8.8.8"/><path class="d" d="M85.8,36.8c2.7,0,5.2-.8,7.4-2.2v3.2c0,4.3-3.8,5.1-6.2,5.2-1.6.1-3.9-.1-4.9-.3-.7-.1-1.1,0-1.1.7v3.8c0,.3.2.6.7.6,5.6.5,9.3.4,12.2-1.2,2-1.1,3.4-3,4.1-5.2.5-1.6.7-3.5.7-5.2v-12.5c0-2.9-.8-5.7-2.5-8-2.4-3.3-6.3-5.1-10.4-5.1s-7.9,1.8-10.4,5.1c-3.3,4.5-3.3,11.5,0,16,2.4,3.4,6.3,5.1,10.4,5.1M79.5,20.7c.9-2.8,3.2-5.1,6.3-5.1,6.9,0,7.2,7.1,7.2,8.1s-.2,8.1-7.2,8.1c-3.1,0-5.3-2.3-6.3-5.1-.3-.9-.5-2-.5-3s.2-2.1.5-3"/><path class="d" d="M58.8,36.8c4.1.2,6.9-.6,9-1.8.4-.2.5-.5.5-1.3v-3.3c0-.7-.4-1-1-.6-2.2,1.4-4.9,2.3-8.3,2-3.4-.3-6.3-2.7-6.6-6.1h17c.4,0,.7-.3.7-.7.3-4.7-1.1-14.5-11.5-14.5-7.7,0-11,5.1-12.1,9.5-.3,1.2-.4,2.4-.4,3.6,0,2.8.8,5.7,2.5,8,2.3,3.5,6.2,5.1,10.2,5.2M58.5,15.7c2.5,0,5.5,1.4,5.5,5.5h-11.6c0-1.9,1.6-5.5,6.1-5.5"/><path class="d" d="M2.7,35c1.6,1.3,3.9,1.9,6.7,1.9h12.7c.4,0,.7-.3.7-.7v-15c0-3.4-.8-6.1-2.4-7.8-1.7-1.8-5-2.7-8-2.7s-6.2.8-8.8,2.3c-.2.1-.3.3-.3.5l.2,3.8c0,.5.6.7,1.1.4,3.8-2.3,8.3-2.8,10.6-1.6,1.6.8,2,2.5,2,3.6v.6h-6.2c-2.7,0-11,1-11,8.6,0,2.6.9,4.7,2.7,6.1M11.3,24.8h5.9v7.4h-7.5c-1-.1-1.9-.3-2.7-.9-.9-.7-1.2-1.4-1.3-2.5.1-1.3,1.1-4,5.6-4"/><path d="M167.51,35.83h-1.76V12.48h-8.12v-1.64h18v1.64h-8.12v23.34Z"/><path d="M186.41,36.17c-2.7,0-4.81-.83-6.32-2.5-1.51-1.66-2.26-3.99-2.26-6.99s.73-5.33,2.19-7.12c1.46-1.78,3.42-2.67,5.9-2.67,2.19,0,3.91.76,5.18,2.29,1.27,1.53,1.9,3.6,1.9,6.22v1.37h-13.38c.02,2.55.62,4.5,1.79,5.84,1.17,1.34,2.84,2.02,5.02,2.02,1.06,0,1.99-.07,2.79-.22.8-.15,1.82-.47,3.05-.96v1.54c-1.05.46-2.02.77-2.9.93s-1.87.25-2.94.25ZM185.91,18.4c-1.79,0-3.22.59-4.31,1.77-1.08,1.18-1.71,2.88-1.9,5.1h11.48c0-2.15-.47-3.84-1.4-5.05-.93-1.21-2.23-1.82-3.88-1.82Z"/><path d="M205.53,36.17c-2.66,0-4.73-.84-6.24-2.51-1.5-1.68-2.26-4.01-2.26-7.01s.78-5.47,2.34-7.19c1.56-1.71,3.7-2.57,6.41-2.57,1.61,0,3.14.28,4.62.84l-.46,1.5c-1.61-.54-3-.8-4.19-.8-2.28,0-4.01.7-5.18,2.11-1.17,1.41-1.76,3.43-1.76,6.08,0,2.51.59,4.47,1.76,5.89,1.17,1.42,2.81,2.13,4.92,2.13,1.69,0,3.25-.3,4.7-.91v1.57c-1.19.58-2.74.87-4.67.87Z"/><path d="M227.7,35.83v-12.05c0-1.87-.39-3.23-1.18-4.08-.79-.85-2-1.27-3.66-1.27-2.22,0-3.85.56-4.88,1.68s-1.55,2.94-1.55,5.46v10.25h-1.69V9.23h1.69v8.46l-.09,2.38h.12c.7-1.12,1.57-1.93,2.63-2.43,1.06-.5,2.38-.75,3.95-.75,4.21,0,6.32,2.26,6.32,6.78v12.15h-1.67Z"/><path d="M246.65,24.94v10.89h-1.74V10.84h5.95c3.1,0,5.39.57,6.87,1.72,1.48,1.14,2.22,2.87,2.22,5.17,0,1.67-.44,3.09-1.32,4.24-.88,1.15-2.22,1.98-4.02,2.48l6.78,11.38h-2.08l-6.44-10.89h-6.2ZM246.65,23.44h4.77c2.11,0,3.74-.47,4.9-1.41,1.16-.94,1.74-2.33,1.74-4.16s-.57-3.29-1.71-4.15c-1.14-.87-3-1.3-5.57-1.3h-4.13v11.02Z"/><path d="M276.56,35.83l-.43-2.94h-.14c-.93,1.2-1.89,2.04-2.88,2.54-.99.5-2.15.74-3.5.74-1.82,0-3.24-.47-4.26-1.4-1.01-.93-1.52-2.23-1.52-3.88,0-1.81.75-3.22,2.26-4.22,1.51-1,3.69-1.53,6.55-1.59l3.54-.1v-1.23c0-1.77-.36-3.1-1.08-4-.72-.9-1.87-1.35-3.47-1.35-1.72,0-3.5.48-5.35,1.44l-.63-1.47c2.04-.96,4.06-1.44,6.05-1.44s3.56.53,4.57,1.59c1.01,1.06,1.51,2.71,1.51,4.96v12.36h-1.25ZM269.72,34.63c1.98,0,3.55-.57,4.69-1.7,1.14-1.13,1.72-2.71,1.72-4.73v-1.83l-3.25.14c-2.61.12-4.47.53-5.58,1.22-1.11.69-1.67,1.76-1.67,3.22,0,1.16.36,2.07,1.07,2.71.71.64,1.72.97,3.02.97Z"/><path d="M290.62,16.89c1.34,0,2.51.25,3.49.73.98.49,1.86,1.33,2.63,2.51h.1c-.07-1.44-.1-2.84-.1-4.22v-6.68h1.67v26.59h-1.11l-.43-2.84h-.14c-1.41,2.12-3.44,3.18-6.08,3.18s-4.52-.8-5.88-2.39c-1.36-1.59-2.03-3.92-2.03-6.97,0-3.21.67-5.67,2.02-7.37,1.34-1.7,3.3-2.55,5.86-2.55ZM290.62,18.43c-2.03,0-3.55.71-4.57,2.14-1.02,1.42-1.53,3.49-1.53,6.2,0,5.26,2.04,7.9,6.14,7.9,2.1,0,3.63-.61,4.61-1.83.98-1.22,1.47-3.23,1.47-6.03v-.29c0-2.87-.48-4.94-1.44-6.2s-2.52-1.89-4.67-1.89Z"/><path d="M315.93,35.83l-.43-2.94h-.14c-.93,1.2-1.89,2.04-2.88,2.54-.99.5-2.15.74-3.5.74-1.82,0-3.24-.47-4.26-1.4-1.01-.93-1.52-2.23-1.52-3.88,0-1.81.75-3.22,2.26-4.22,1.51-1,3.69-1.53,6.55-1.59l3.54-.1v-1.23c0-1.77-.36-3.1-1.08-4-.72-.9-1.87-1.35-3.47-1.35-1.72,0-3.5.48-5.35,1.44l-.63-1.47c2.04-.96,4.06-1.44,6.05-1.44s3.56.53,4.57,1.59c1.01,1.06,1.51,2.71,1.51,4.96v12.36h-1.25ZM309.1,34.63c1.98,0,3.55-.57,4.69-1.7,1.14-1.13,1.72-2.71,1.72-4.73v-1.83l-3.25.14c-2.61.12-4.47.53-5.58,1.22-1.11.69-1.67,1.76-1.67,3.22,0,1.16.36,2.07,1.07,2.71.71.64,1.72.97,3.02.97Z"/><path d="M330.51,16.89c.79,0,1.63.08,2.53.24l-.33,1.62c-.77-.19-1.58-.29-2.41-.29-1.58,0-2.88.67-3.9,2.02-1.01,1.34-1.52,3.04-1.52,5.09v10.25h-1.69v-18.58h1.44l.17,3.35h.12c.76-1.37,1.58-2.33,2.44-2.88.87-.55,1.91-.83,3.14-.83Z"/></g></svg>